<svg xmlns="http://www.w3.org/2000/svg" width="56.764" height="56.763" viewBox="0 0 56.764 56.763">
  <g id="Group_788" data-name="Group 788" transform="translate(-3335.719 -1458)">
    <path id="Path_3243" data-name="Path 3243" d="M192.1,0h0a28.382,28.382,0,1,1-28.383,28.382A28.382,28.382,0,0,1,192.1,0" transform="translate(3172 1458)" fill="#fffefe"/>
    <g id="Group_777" data-name="Group 777" transform="translate(2912 1050)">
      <path id="Path_7" data-name="Path 7" d="M205.284,28.381A13.186,13.186,0,1,0,190.039,41.4V32.191h-3.348v-3.81h3.348v-2.9c0-3.305,1.969-5.129,4.979-5.129a20.4,20.4,0,0,1,2.95.257v3.244H196.3a1.9,1.9,0,0,0-2.139,1.627,1.941,1.941,0,0,0-.009.431v2.474h3.657l-.586,3.81h-3.071V41.4a13.187,13.187,0,0,0,11.127-13.024" transform="translate(260 408)" fill="#e22829"/>
      <path id="Path_8" data-name="Path 8" d="M197.235,32.193l.586-3.81h-3.657V25.909a1.9,1.9,0,0,1,1.716-2.067,1.839,1.839,0,0,1,.426.008h1.663V20.607a20.4,20.4,0,0,0-2.95-.257c-3.011,0-4.979,1.824-4.979,5.129v2.9H186.7v3.81h3.348V41.4a13.422,13.422,0,0,0,2.061.162,13.176,13.176,0,0,0,2.061-.162v-9.21h3.069Z" transform="translate(260 408)" fill="#fff"/>
    </g>
  </g>
</svg>
