<svg xmlns="http://www.w3.org/2000/svg" width="56.764" height="56.763" viewBox="0 0 56.764 56.763">
  <g id="Group_785" data-name="Group 785" transform="translate(-3577.927 -1453)">
    <path id="Path_3246" data-name="Path 3246" d="M355.012,0h0a28.382,28.382,0,1,1-28.383,28.382A28.382,28.382,0,0,1,355.012,0" transform="translate(3251.298 1453)" fill="#fff"/>
    <g id="Group_778" data-name="Group 778" transform="translate(2991.298 1045)">
      <path id="Path_10" data-name="Path 10" d="M368.932,21.389a3.641,3.641,0,0,0-2.569-2.569c-2.266-.606-11.35-.606-11.35-.606s-9.084,0-11.35.606a3.643,3.643,0,0,0-2.569,2.569,40.629,40.629,0,0,0,0,13.982,3.643,3.643,0,0,0,2.569,2.569c2.266.606,11.35.606,11.35.606s9.084,0,11.35-.606a3.641,3.641,0,0,0,2.569-2.569,40.629,40.629,0,0,0,0-13.982m-16.824,11.35V24.025l7.548,4.359-7.548,4.359Z" transform="translate(260 408)" fill="#e22829"/>
    </g>
  </g>
</svg>
