<svg xmlns="http://www.w3.org/2000/svg" xmlns:xlink="http://www.w3.org/1999/xlink" width="56.764" height="56.763" viewBox="0 0 56.764 56.763">
  <defs>
    <clipPath id="clip-path">
      <rect id="Rectangle_1" data-name="Rectangle 1" width="30" height="16.957" transform="translate(0 -0.001)" fill="none"/>
    </clipPath>
  </defs>
  <g id="Group_784" data-name="Group 784" transform="translate(-3647.569 -1453)">
    <path id="Path_3248" data-name="Path 3248" d="M436.471,0h0a28.382,28.382,0,1,1-28.382,28.382A28.382,28.382,0,0,1,436.471,0" transform="translate(3239.48 1453)" fill="#fff"/>
    <g id="Group_780" data-name="Group 780" transform="translate(3661.569 1473)">
      <g id="Group_4" data-name="Group 4" clip-path="url(#clip-path)">
        <path id="Path_18" data-name="Path 18" d="M8.479,0a8.478,8.478,0,1,0,8.478,8.478A8.479,8.479,0,0,0,8.479,0M21.848.652c-2.341,0-4.239,3.5-4.239,7.826a14.018,14.018,0,0,0,.191,2.327,11.008,11.008,0,0,0,.777,2.651,7.483,7.483,0,0,0,.575,1.061,4.4,4.4,0,0,0,1.436,1.435,2.433,2.433,0,0,0,2.521,0,4.41,4.41,0,0,0,1.436-1.435,7.586,7.586,0,0,0,.575-1.061,11.04,11.04,0,0,0,.777-2.651,14.019,14.019,0,0,0,.19-2.327c0-4.322-1.9-7.826-4.239-7.826M28.37,1.3a.641.641,0,0,0-.485.323,2.651,2.651,0,0,0-.292.543c-.046.11-.091.23-.134.359a8.858,8.858,0,0,0-.241.876,18.444,18.444,0,0,0-.35,2.281c-.041.429-.073.88-.095,1.347s-.033.95-.033,1.445.011.979.033,1.446.053.917.095,1.347a18.426,18.426,0,0,0,.35,2.28,8.783,8.783,0,0,0,.241.876c.043.129.088.249.134.359a2.791,2.791,0,0,0,.292.544.642.642,0,0,0,.485.322c.9,0,1.63-3.212,1.63-7.174S29.271,1.3,28.37,1.3" fill="#e22829"/>
      </g>
    </g>
  </g>
</svg>
