<svg xmlns="http://www.w3.org/2000/svg" xmlns:xlink="http://www.w3.org/1999/xlink" width="56.764" height="56.763" viewBox="0 0 56.764 56.763">
  <defs>
    <clipPath id="clip-path">
      <rect id="Rectangle_2" data-name="Rectangle 2" width="25.765" height="19.044" transform="translate(0 0)" fill="none"/>
    </clipPath>
  </defs>
  <g id="Group_782" data-name="Group 782" transform="translate(-3779.33 -1461.576)">
    <path id="Path_3249" data-name="Path 3249" d="M436.471,0h0a28.382,28.382,0,1,1-28.382,28.382A28.382,28.382,0,0,1,436.471,0" transform="translate(3371.241 1461.576)" fill="#fff"/>
    <g id="Group_781" data-name="Group 781" transform="translate(3794.33 1480.576)">
      <g id="Group_6" data-name="Group 6" clip-path="url(#clip-path)">
        <path id="Path_19" data-name="Path 19" d="M22.194,2.112A12.346,12.346,0,0,0,16.287,0a.555.555,0,0,0-.554.328,3.636,3.636,0,0,0-.17.466,13.749,13.749,0,0,1,4.924,1.768.561.561,0,0,1-.3,1.037.568.568,0,0,1-.3-.085,14.318,14.318,0,0,0-14.029,0,.56.56,0,0,1-.591-.952A13.753,13.753,0,0,1,10.2.8a4.714,4.714,0,0,0-.168-.468A.553.553,0,0,0,9.478,0,12.38,12.38,0,0,0,3.54,2.136C2.361,3.228,0,9.608,0,15.123a.561.561,0,0,0,.074.278c1.628,2.862,6.072,3.61,7.085,3.643h.017a.558.558,0,0,0,.453-.23l1.024-1.409a10.876,10.876,0,0,1-4.255-2,.56.56,0,0,1,.741-.84c.033.03,2.632,2.236,7.743,2.236s7.719-2.214,7.745-2.236a.56.56,0,0,1,.74.84,10.876,10.876,0,0,1-4.255,2l1.023,1.409a.559.559,0,0,0,.453.23h.018c1.013-.033,5.456-.781,7.084-3.643a.562.562,0,0,0,.075-.278c0-5.515-2.361-11.9-3.571-13.011M9.242,12.883a2.114,2.114,0,0,1-1.961-2.24A2.114,2.114,0,0,1,9.242,8.4a2.113,2.113,0,0,1,1.96,2.241,2.113,2.113,0,0,1-1.96,2.24m7.281,0a2.113,2.113,0,0,1-1.96-2.24A2.113,2.113,0,0,1,16.523,8.4a2.113,2.113,0,0,1,1.96,2.241,2.113,2.113,0,0,1-1.96,2.24" fill="#e22829"/>
      </g>
    </g>
  </g>
</svg>
