<svg xmlns="http://www.w3.org/2000/svg" width="56.764" height="56.763" viewBox="0 0 56.764 56.763">
  <g id="Group_783" data-name="Group 783" transform="translate(-3702.179 -1458)">
    <path id="Path_3245" data-name="Path 3245" d="M273.561,0h0a28.382,28.382,0,1,1-28.382,28.382A28.382,28.382,0,0,1,273.561,0" transform="translate(3457 1458)" fill="#fff"/>
    <path id="Path_3250" data-name="Path 3250" d="M285.567,18.529a.516.516,0,0,0-.349-.381,1.816,1.816,0,0,0-.95.066s-21.124,7.592-22.33,8.434c-.26.182-.346.286-.39.41-.208.6.442.863.442.863l5.444,1.775a.592.592,0,0,0,.274-.017c1.238-.782,12.461-7.869,13.111-8.108.1-.032.179.006.159.075-.26.909-10.007,9.575-10.007,9.575a.485.485,0,0,0-.061.1l-.012-.009-.508,5.4s-.214,1.654,1.44,0c1.166-1.166,2.3-2.145,2.863-2.618,1.873,1.293,3.888,2.722,4.757,3.47a1.506,1.506,0,0,0,1.1.424c.825-.032,1.056-.938,1.056-.938s3.851-15.492,3.978-17.57c.012-.2.029-.332.032-.473a1.838,1.838,0,0,0-.046-.479Z" transform="translate(3457 1458)" fill="#e22829"/>
  </g>
</svg>
