<svg xmlns="http://www.w3.org/2000/svg" width="24" height="20.896" viewBox="0 0 24 20.896">
  <path id="Path_3211" data-name="Path 3211" d="M32.009,23.79A8.224,8.224,0,0,1,23.8,32.008H9.009a1,1,0,0,1,0-2H23.8a6.215,6.215,0,1,0,0-12.429H11.8l3.274,2.692a1,1,0,1,1-1.27,1.546L8.374,17.35c-.012-.01-.021-.022-.033-.033a.953.953,0,0,1-.074-.075l-.008-.008c-.007-.008-.016-.014-.023-.022v0c-.011-.013-.018-.027-.028-.04a.879.879,0,0,1-.055-.082c0-.007-.01-.013-.013-.02s-.013-.017-.017-.026-.011-.027-.017-.04q-.02-.044-.036-.089l0-.009a.868.868,0,0,1-.044-.177c0-.019-.009-.036-.011-.055s0-.036,0-.053,0-.029,0-.044,0-.029,0-.044v-.053a.379.379,0,0,1,.011-.055.864.864,0,0,1,.044-.177l0-.009c.011-.031.023-.06.036-.089.006-.013.01-.027.017-.04s.012-.017.017-.026.009-.013.013-.02a.88.88,0,0,1,.054-.082c.01-.013.017-.028.028-.04v0c.01-.013.023-.021.033-.033a.889.889,0,0,1,.072-.072c.012-.011.021-.023.033-.033l.005,0,5.429-4.461a1,1,0,1,1,1.27,1.546L11.8,15.577H23.8a8.222,8.222,0,0,1,8.211,8.213Z" transform="translate(-8.009 -11.112)" fill="#414141"/>
</svg>
