<svg xmlns="http://www.w3.org/2000/svg" width="56.764" height="56.763" viewBox="0 0 56.764 56.763">
  <g id="Group_787" data-name="Group 787" transform="translate(-3417.998 -1458)">
    <path id="Path_3244" data-name="Path 3244" d="M192.1,0h0a28.382,28.382,0,1,1-28.383,28.382A28.382,28.382,0,0,1,192.1,0" transform="translate(3254.279 1458)" fill="#fff"/>
    <g id="Group_779" data-name="Group 779" transform="translate(3076.138 1050)">
      <path id="Path_12" data-name="Path 12" d="M110.242,18.323c3.276,0,3.663.012,4.956.072a6.835,6.835,0,0,1,2.277.421,4.066,4.066,0,0,1,2.329,2.329,6.835,6.835,0,0,1,.421,2.277c.058,1.293.072,1.683.072,4.956s-.012,3.663-.072,4.956a6.835,6.835,0,0,1-.421,2.277,4.066,4.066,0,0,1-2.329,2.329,6.835,6.835,0,0,1-2.277.421c-1.293.058-1.68.072-4.956.072s-3.663-.012-4.956-.072a6.835,6.835,0,0,1-2.277-.421,4.066,4.066,0,0,1-2.329-2.329,6.835,6.835,0,0,1-.421-2.277c-.058-1.293-.072-1.683-.072-4.956s.012-3.663.072-4.956a6.835,6.835,0,0,1,.421-2.277,4.066,4.066,0,0,1,2.329-2.329,6.835,6.835,0,0,1,2.277-.421c1.293-.058,1.683-.072,4.956-.072m0-2.211c-3.331,0-3.75.014-5.057.075a8.976,8.976,0,0,0-2.979.572,6.071,6.071,0,0,0-2.174,1.414,5.988,5.988,0,0,0-1.414,2.174,9.032,9.032,0,0,0-.572,2.979c-.061,1.308-.075,1.726-.075,5.057s.014,3.75.075,5.057a8.976,8.976,0,0,0,.572,2.979,6.071,6.071,0,0,0,1.414,2.174,5.988,5.988,0,0,0,2.174,1.414,9.032,9.032,0,0,0,2.979.572c1.308.061,1.726.075,5.057.075s3.75-.014,5.057-.075a8.976,8.976,0,0,0,2.979-.572,6.069,6.069,0,0,0,2.173-1.415,5.988,5.988,0,0,0,1.414-2.174,9.031,9.031,0,0,0,.572-2.979c.061-1.308.075-1.726.075-5.057s-.014-3.75-.075-5.057a8.976,8.976,0,0,0-.572-2.979,6.071,6.071,0,0,0-1.414-2.174,5.988,5.988,0,0,0-2.174-1.414,9.032,9.032,0,0,0-2.979-.572c-1.308-.061-1.726-.075-5.057-.075Z" transform="translate(260 408)" fill="#e22829"/>
      <path id="Path_13" data-name="Path 13" d="M110.244,22.082a6.3,6.3,0,1,0,6.3,6.3,6.3,6.3,0,0,0-6.3-6.3m0,10.389a4.09,4.09,0,1,1,4.09-4.09,4.09,4.09,0,0,1-4.09,4.09" transform="translate(260 408)" fill="#e22829"/>
      <path id="Path_14" data-name="Path 14" d="M116.79,20.361a1.472,1.472,0,1,1-1.472,1.472,1.472,1.472,0,0,1,1.472-1.472" transform="translate(260 408)" fill="#e22829"/>
    </g>
  </g>
</svg>
